<?xml version="1.0" standalone="no"?>
<!DOCTYPE svg PUBLIC "-//W3C//DTD SVG 20010904//EN"
 "http://www.w3.org/TR/2001/REC-SVG-20010904/DTD/svg10.dtd">
<svg version="1.0" xmlns="http://www.w3.org/2000/svg"
 width="393.000000pt" height="393.000000pt" viewBox="0 0 393.000000 393.000000"
 preserveAspectRatio="xMidYMid meet">
<metadata>
Created by potrace 1.11, written by Peter Selinger 2001-2013
</metadata>
<g transform="translate(0.000000,393.000000) scale(0.100000,-0.100000)"
fill="#000000" stroke="none">
<path d="M3598 3925 c-1 -1 -48 -6 -103 -9 -94 -6 -127 -9 -235 -21 -154 -18
-403 -85 -550 -147 -400 -170 -689 -485 -884 -966 -81 -198 -119 -323 -236
-762 -161 -606 -254 -878 -394 -1159 -53 -106 -72 -139 -144 -251 -203 -312
-511 -525 -843 -582 -38 -7 -69 -16 -69 -20 0 -8 245 -3 375 7 495 42 892 163
1214 372 322 209 555 493 735 898 15 33 31 68 37 77 5 10 9 23 9 29 0 6 6 25
14 42 15 34 52 147 85 262 44 151 119 525 136 681 4 32 9 61 10 64 2 3 7 33
10 65 4 33 9 69 11 80 3 11 7 36 9 55 3 19 7 49 10 65 3 17 7 48 10 70 8 49
42 251 49 285 3 14 8 36 11 50 3 14 7 36 10 49 15 80 80 271 116 341 121 237
316 373 585 408 35 4 52 10 42 14 -9 4 -18 5 -20 3z"/>
<path d="M90 10 c-24 -8 -23 -8 8 -9 20 -1 31 3 27 9 -3 6 -7 10 -8 9 -1 -1
-13 -5 -27 -9z"/>
</g>
</svg>
